<?xml version="1.0" encoding="utf-8"?>
<!-- Generator: Adobe Illustrator 21.1.0, SVG Export Plug-In . SVG Version: 6.00 Build 0)  -->
<svg version="1.1" id="Livello_1" xmlns="http://www.w3.org/2000/svg" xmlns:xlink="http://www.w3.org/1999/xlink" x="0px" y="0px"
	 viewBox="0 0 477.9 65.5" style="enable-background:new 0 0 477.9 65.5;" xml:space="preserve">
<style type="text/css">
	.st0{fill:#FFFFFF;}
	.st1{fill:none;}
	.st2{fill:#FFFFFF;}
</style>
<g>
	<path class="st0" d="M133.4,11.1h-29.2c-1.9,0-3.5,1.5-3.5,3.4c0,1.9,1.5,3.4,3.5,3.4h3.5c0.4,0,0.7,0.3,0.7,0.7v28.1h0
		c0,1.9,1.5,3.4,3.4,3.4c1.9,0,3.4-1.5,3.4-3.4h0V18.7c0-0.4,0.3-0.7,0.7-0.7h3.5c0.4,0,0.7,0.3,0.7,0.7v28.1h0
		c0,1.9,1.5,3.4,3.4,3.4c1.9,0,3.4-1.5,3.4-3.4h0V18.7c0-0.4,0.3-0.7,0.7-0.7h5.7c1.9,0,3.5-1.5,3.5-3.4
		C136.8,12.7,135.3,11.1,133.4,11.1"/>
	<path class="st0" d="M32.5,43.2H18.8c-0.4,0-0.8-0.4-0.8-0.8V14.1c0-1.8-1.5-3.3-3.3-3.3c-1.8,0-3.3,1.5-3.3,3.3c0,0,0,0,0,0v32.2
		c0,1.8,1.5,3.3,3.3,3.3h17.7c1.8,0,3.2-1.4,3.2-3.2C35.7,44.6,34.3,43.2,32.5,43.2"/>
	<path class="st0" d="M133.1,20.7c-1.9,0-3.5,1.5-3.5,3.5v22.6c0,1.9,1.6,3.5,3.5,3.5s3.5-1.5,3.5-3.5V24.2
		C136.6,22.3,135,20.7,133.1,20.7"/>
	<path class="st0" d="M85.1,50.7c-11.1,0-20-9-20-20c0-11.1,9-20,20-20c11.1,0,20,9,20,20C105.1,41.7,96.1,50.7,85.1,50.7
		 M85.1,17.1c-7.4,0-13.5,6.1-13.5,13.5s6.1,13.5,13.5,13.5c7.4,0,13.5-6.1,13.5-13.5S92.5,17.1,85.1,17.1"/>
	<path class="st0" d="M44,24l0.2-0.1c0,0,0.1,0.1,0.1,0.1l4.7,6c0.1,0.1,0.2,0.3,0.2,0.5c0,0.2-0.1,0.4-0.2,0.5L38.3,44.7
		c-1.1,1.4-0.9,3.5,0.6,4.6c0.6,0.5,1.3,0.7,2,0.7c1,0,1.9-0.4,2.6-1.3l9.5-12.1c0.1-0.2,0.4-0.3,0.6-0.3c0.2,0,0.5,0.1,0.6,0.3
		l9.5,12.1c0.6,0.8,1.6,1.3,2.6,1.3c0.7,0,1.4-0.2,2-0.7c1.4-1.1,1.7-3.2,0.6-4.6L58.1,31l0,0c-0.1-0.1-0.2-0.3-0.2-0.5
		c0-0.2,0.1-0.4,0.2-0.5L69,16.1c1.1-1.4,0.9-3.5-0.6-4.6c-1.4-1.1-3.5-0.9-4.6,0.6l-9.7,12.3c-0.1,0.2-0.4,0.3-0.6,0.3
		c-0.2,0-0.5-0.1-0.6-0.3l-9.7-12.3c-0.9-1.1-2.3-1.5-3.7-1.1c-1.3,0.5-2.2,1.7-2.2,3.1v14.7c0,2.7-2.2,4.8-4.8,4.8
		c-2.7,0-4.8-2.2-4.8-4.8V14.1c0-1.8-1.5-3.3-3.3-3.3c-1.8,0-3.3,1.5-3.3,3.3v14.5c0,6.3,5.1,11.4,11.4,11.4
		C38.8,40,44,34.9,44,28.6V24"/>
	<rect x="11.5" y="10.4" class="st1" width="173.3" height="40.3"/>
	<path class="st0" d="M178.1,24.7l0.2,0.1v22.4c0,1.8,1.5,3.3,3.3,3.3c1.8,0,3.3-1.5,3.3-3.3V14c0-1.4-0.9-2.7-2.3-3.1
		c-1.4-0.4-2.9,0.1-3.7,1.2L156.3,44c-6.6-0.9-11.7-6.6-11.7-13.4c0-7.5,6.1-13.6,13.6-13.6c1.9,0,3.7,0.4,5.4,1.1
		c1.7,0.7,3.6,0,4.3-1.7c0.7-1.7,0-3.6-1.7-4.3c-2.6-1.1-5.3-1.7-8.1-1.7c-11.1,0-20.1,9-20.1,20.2c0,10.9,8.8,19.9,19.7,20.1
		c0.1,0,0.1,0,0.2,0c1,0,2.1-0.5,2.7-1.4L178,24.8C178,24.8,178.1,24.7,178.1,24.7"/>
	<path class="st0" d="M172.7,15.8c1.4,0,2.6-1.2,2.6-2.6c0-1.4-1.2-2.6-2.6-2.6c-1.4,0-2.6,1.2-2.6,2.6
		C170.1,14.6,171.3,15.8,172.7,15.8 M172.8,11c1.2,0,2.2,1,2.2,2.2c0,1.2-1,2.2-2.2,2.2c-1.2,0-2.2-1-2.2-2.2
		C170.6,12,171.5,11,172.8,11z M172.1,13.4h0.8c0.2,0,0.3,0,0.3,0c0.1,0.1,0.2,0.2,0.2,0.4l0,0.5c0,0.1,0,0.2,0,0.2c0,0,0,0.1,0,0.1
		h0.4v-0.1c-0.1,0-0.1-0.1-0.1-0.2c0-0.1,0-0.1,0-0.2l0-0.4c0-0.2,0-0.3-0.1-0.3c-0.1-0.1-0.1-0.1-0.2-0.2c0.1-0.1,0.2-0.1,0.3-0.2
		c0.1-0.1,0.1-0.2,0.1-0.4c0-0.3-0.1-0.5-0.4-0.6c-0.1-0.1-0.3-0.1-0.5-0.1h-1.3v2.7h0.4V13.4z M172.1,12.2h0.9c0.1,0,0.2,0,0.3,0.1
		c0.1,0.1,0.2,0.2,0.2,0.4c0,0.2-0.1,0.3-0.2,0.4c-0.1,0.1-0.2,0.1-0.4,0.1h-0.8V12.2z"/>
	<path class="st2" d="M202.1,50.8c-0.3,0-0.5-0.2-0.5-0.5V11.2c0-0.3,0.2-0.5,0.5-0.5c0.3,0,0.5,0.2,0.5,0.5v39.1
		C202.6,50.5,202.3,50.8,202.1,50.8z"/>
	<g>
		<path class="st2" d="M217.6,13.1h9.4c1.8,0,3.5,0.1,5.3,0.3c1.8,0.2,3.3,0.7,4.7,1.4c1.4,0.7,2.5,1.7,3.4,3
			c0.9,1.3,1.3,3.2,1.3,5.4c0,2.7-0.8,4.9-2.5,6.6c-1.6,1.7-3.9,2.7-6.8,3.2L243,50h-5.4l-10-16.6H222V50h-4.4V13.1z M222,29.4h3.9
			c1.2,0,2.5,0,3.8-0.1c1.3-0.1,2.5-0.3,3.6-0.7c1.1-0.4,2-1,2.7-1.8c0.7-0.8,1.1-2,1.1-3.5c0-1.3-0.3-2.4-0.8-3.2
			c-0.5-0.8-1.2-1.4-2.1-1.8c-0.9-0.4-1.8-0.7-2.9-0.9c-1.1-0.1-2.1-0.2-3.2-0.2H222V29.4z"/>
		<path class="st2" d="M269.5,45.6c-1.5,1.9-3.1,3.2-4.8,3.9c-1.7,0.7-3.8,1.1-6,1.1c-1.9,0-3.6-0.3-5.2-1c-1.5-0.7-2.8-1.6-3.9-2.7
			c-1.1-1.1-1.9-2.5-2.5-4.1c-0.6-1.6-0.9-3.2-0.9-5c0-1.9,0.3-3.6,0.9-5.2c0.6-1.6,1.5-2.9,2.6-4.1c1.1-1.1,2.4-2,4-2.6
			c1.5-0.6,3.2-0.9,5-0.9c1.7,0,3.3,0.3,4.7,0.9c1.4,0.6,2.7,1.4,3.7,2.5c1,1.1,1.8,2.4,2.4,4c0.6,1.6,0.8,3.4,0.8,5.4v1.3h-19.7
			c0.1,1,0.3,2,0.8,3c0.4,1,1,1.8,1.7,2.5c0.7,0.7,1.5,1.3,2.4,1.7c0.9,0.4,2,0.6,3.1,0.6c1.8,0,3.3-0.3,4.5-0.9
			c1.2-0.6,2.3-1.5,3.3-2.8L269.5,45.6z M266,35.7c-0.1-2.1-0.7-3.8-2-5c-1.3-1.3-3.1-1.9-5.3-1.9s-4.1,0.6-5.5,1.9
			c-1.4,1.3-2.2,2.9-2.5,5H266z"/>
		<path class="st2" d="M295.9,45.7h-0.1c-0.8,1.4-2,2.6-3.6,3.5c-1.7,1-3.6,1.4-5.8,1.4c-1.7,0-3.3-0.3-4.8-1
			c-1.5-0.6-2.8-1.5-3.9-2.7c-1.1-1.1-2-2.5-2.6-4.1c-0.6-1.6-0.9-3.3-0.9-5.1s0.3-3.5,0.9-5.1c0.6-1.6,1.5-2.9,2.6-4.1
			c1.1-1.1,2.5-2,4-2.7c1.6-0.6,3.3-1,5.2-1c1.8,0,3.4,0.4,4.9,1.1c1.5,0.7,2.8,1.8,3.9,3.1h0.1V10.6h4.1V50h-4.1V45.7z M295.9,37.8
			c0-1.3-0.2-2.5-0.6-3.6c-0.4-1.1-1-2.1-1.7-2.9c-0.8-0.8-1.7-1.5-2.7-1.9c-1.1-0.5-2.3-0.7-3.6-0.7c-1.3,0-2.5,0.2-3.6,0.7
			c-1.1,0.5-2,1.1-2.7,1.9c-0.8,0.8-1.3,1.8-1.7,2.9c-0.4,1.1-0.6,2.3-0.6,3.6c0,1.3,0.2,2.5,0.6,3.6c0.4,1.1,1,2.1,1.7,2.9
			c0.8,0.8,1.7,1.5,2.7,1.9c1.1,0.5,2.2,0.7,3.6,0.7c1.3,0,2.5-0.2,3.6-0.7c1.1-0.5,2-1.1,2.7-1.9c0.8-0.8,1.3-1.8,1.7-2.9
			C295.7,40.3,295.9,39.1,295.9,37.8z"/>
		<path class="st2" d="M346.5,20.8c-1.1-1.5-2.5-2.6-4.1-3.4c-1.6-0.7-3.3-1.1-5.1-1.1c-2.1,0-3.9,0.4-5.7,1.3
			c-1.7,0.8-3.2,2-4.5,3.4c-1.3,1.4-2.2,3-2.9,4.9c-0.7,1.9-1,3.8-1,5.8c0,2.2,0.3,4.2,1,6c0.7,1.9,1.7,3.5,2.9,4.8
			c1.2,1.4,2.7,2.5,4.4,3.3c1.7,0.8,3.6,1.2,5.7,1.2c2.3,0,4.3-0.4,6-1.3c1.8-0.9,3.3-2.2,4.6-3.8l3.3,2.8c-1.7,2.2-3.7,3.9-6,4.9
			c-2.3,1-5,1.6-7.9,1.6c-2.6,0-5.1-0.5-7.4-1.5c-2.3-1-4.3-2.3-6-4s-3-3.8-4-6.1c-1-2.4-1.4-5-1.4-7.8c0-2.7,0.5-5.2,1.4-7.6
			c0.9-2.4,2.2-4.4,3.9-6.2c1.7-1.7,3.6-3.1,5.9-4.1c2.3-1,4.8-1.5,7.6-1.5c2.5,0,4.9,0.5,7.2,1.4c2.3,0.9,4.2,2.4,5.8,4.4
			L346.5,20.8z"/>
		<path class="st2" d="M355.2,28.8c1.3-1.3,2.7-2.2,4.5-2.8c1.7-0.6,3.5-0.9,5.2-0.9c3.6,0,6.2,0.9,7.8,2.6c1.6,1.7,2.4,4.3,2.4,7.8
			v10.5c0,0.7,0,1.4,0.1,2.2c0.1,0.7,0.2,1.4,0.3,2.1h-3.9c-0.1-0.6-0.2-1.2-0.2-1.9c0-0.7,0-1.3,0-1.8h-0.1
			c-0.8,1.3-1.9,2.3-3.2,3.1c-1.3,0.8-2.9,1.2-4.8,1.2c-1.3,0-2.4-0.2-3.5-0.5c-1.1-0.3-2.1-0.8-2.9-1.4c-0.8-0.6-1.5-1.4-2-2.3
			c-0.5-0.9-0.7-1.9-0.7-3.1c0-2,0.5-3.6,1.6-4.7c1-1.1,2.3-2,3.9-2.6c1.5-0.6,3.2-0.9,5-1c1.8-0.1,3.4-0.2,4.9-0.2h1.6v-0.7
			c0-1.8-0.5-3.1-1.6-4c-1.1-0.9-2.5-1.4-4.5-1.4c-1.3,0-2.6,0.2-3.9,0.7c-1.3,0.4-2.4,1.1-3.4,2L355.2,28.8z M367,38.3
			c-2.6,0-4.7,0.4-6.2,1.1c-1.5,0.7-2.3,1.9-2.3,3.6c0,1.5,0.5,2.6,1.5,3.3c1,0.6,2.3,1,3.8,1c1.2,0,2.2-0.2,3.1-0.6
			c0.9-0.4,1.6-0.9,2.2-1.6c0.6-0.7,1-1.4,1.4-2.3c0.3-0.9,0.5-1.8,0.5-2.8v-1.6H367z"/>
		<path class="st2" d="M381.5,31.4c0-1.1,0-2.2-0.1-3.1c-0.1-1-0.1-1.9-0.1-2.7h3.9c0,0.7,0,1.3,0.1,2c0,0.7,0.1,1.3,0.1,2h0.1
			c0.3-0.6,0.7-1.2,1.2-1.7c0.5-0.6,1.1-1.1,1.8-1.5c0.7-0.4,1.5-0.8,2.3-1c0.9-0.3,1.8-0.4,2.8-0.4c0.3,0,0.6,0,0.8,0.1
			c0.3,0,0.6,0.1,0.8,0.2l-0.3,4.1c-0.7-0.2-1.4-0.3-2.2-0.3c-2.5,0-4.3,0.8-5.4,2.4c-1.1,1.6-1.7,3.8-1.7,6.6V50h-4.1V31.4z"/>
		<path class="st2" d="M398.6,25.7h4.1v3.5h0.1c1.1-1.3,2.4-2.3,3.9-3.1c1.5-0.7,3.1-1.1,4.9-1.1c1.9,0,3.7,0.3,5.2,1
			c1.6,0.6,2.9,1.5,4,2.7c1.1,1.1,2,2.5,2.6,4.1c0.6,1.6,0.9,3.3,0.9,5.1s-0.3,3.5-0.9,5.1c-0.6,1.6-1.5,2.9-2.6,4.1
			c-1.1,1.1-2.4,2-3.9,2.7c-1.5,0.6-3.1,1-4.8,1c-2.2,0-4.1-0.5-5.8-1.4c-1.7-1-2.9-2.1-3.6-3.5h-0.1v16.2h-4.1V25.7z M402.7,37.8
			c0,1.3,0.2,2.5,0.6,3.6c0.4,1.1,1,2.1,1.7,2.9c0.8,0.8,1.7,1.5,2.7,1.9c1.1,0.5,2.2,0.7,3.6,0.7c1.3,0,2.5-0.2,3.6-0.7
			c1.1-0.5,2-1.1,2.7-1.9c0.8-0.8,1.3-1.8,1.7-2.9c0.4-1.1,0.6-2.3,0.6-3.6c0-1.3-0.2-2.5-0.6-3.6c-0.4-1.1-1-2.1-1.7-2.9
			c-0.8-0.8-1.7-1.5-2.7-1.9c-1.1-0.5-2.3-0.7-3.6-0.7c-1.3,0-2.5,0.2-3.6,0.7c-1.1,0.5-2,1.1-2.7,1.9c-0.8,0.8-1.3,1.8-1.7,2.9
			C402.9,35.4,402.7,36.6,402.7,37.8z"/>
		<path class="st2" d="M451.4,45.6c-1.5,1.9-3.1,3.2-4.8,3.9c-1.7,0.7-3.8,1.1-6,1.1c-1.9,0-3.6-0.3-5.2-1c-1.5-0.7-2.8-1.6-3.9-2.7
			c-1.1-1.1-1.9-2.5-2.4-4.1c-0.6-1.6-0.9-3.2-0.9-5c0-1.9,0.3-3.6,0.9-5.2c0.6-1.6,1.5-2.9,2.6-4.1c1.1-1.1,2.4-2,4-2.6
			c1.5-0.6,3.2-0.9,5-0.9c1.7,0,3.3,0.3,4.7,0.9c1.4,0.6,2.7,1.4,3.7,2.5c1,1.1,1.8,2.4,2.4,4c0.6,1.6,0.8,3.4,0.8,5.4v1.3h-19.7
			c0.1,1,0.3,2,0.8,3c0.4,1,1,1.8,1.7,2.5c0.7,0.7,1.5,1.3,2.5,1.7c0.9,0.4,2,0.6,3.1,0.6c1.8,0,3.3-0.3,4.5-0.9
			c1.2-0.6,2.3-1.5,3.3-2.8L451.4,45.6z M448,35.7c-0.1-2.1-0.7-3.8-2-5c-1.3-1.3-3.1-1.9-5.3-1.9c-2.3,0-4.1,0.6-5.5,1.9
			c-1.4,1.3-2.2,2.9-2.5,5H448z"/>
		<path class="st2" d="M470.9,29.1h-7.2v12.2c0,0.8,0,1.5,0.1,2.2c0,0.7,0.2,1.3,0.4,1.8c0.2,0.5,0.6,0.9,1.1,1.2
			c0.5,0.3,1.2,0.4,2.1,0.4c0.6,0,1.2-0.1,1.8-0.2c0.6-0.1,1.2-0.3,1.8-0.6l0.2,3.7c-0.7,0.3-1.5,0.5-2.3,0.7
			c-0.9,0.1-1.7,0.2-2.4,0.2c-1.5,0-2.6-0.2-3.5-0.6c-0.9-0.4-1.5-0.9-2-1.6c-0.5-0.7-0.8-1.6-1-2.6c-0.2-1-0.2-2.2-0.2-3.4V29.1
			h-5.3v-3.4h5.3v-6.9h4.1v6.9h7.2V29.1z"/>
	</g>
</g>
</svg>
